<svg xmlns="http://www.w3.org/2000/svg" width="1080" height="1350" viewBox="0 0 1080 1350" preserveAspectRatio="xMidYMid slice"><defs><radialGradient id="vig" cx="50%" cy="34%" r="78%"><stop offset="0%" stop-color="#FFFFFF" stop-opacity="0.055"/><stop offset="70%" stop-color="#FFFFFF" stop-opacity="0.012"/><stop offset="100%" stop-color="#FFFFFF" stop-opacity="0"/></radialGradient></defs><rect width="1080" height="1350" fill="{{BG}}"/><line x1="610" y1="255" x2="495" y2="425" stroke="{{KEY}}" stroke-opacity="0.41" stroke-width="2"/><line x1="610" y1="255" x2="725" y2="425" stroke="{{KEY}}" stroke-opacity="0.41" stroke-width="2"/><line x1="495" y1="425" x2="725" y2="425" stroke="{{KEY}}" stroke-opacity="0.41" stroke-width="2"/><line x1="495" y1="425" x2="380" y2="600" stroke="{{KEY}}" stroke-opacity="0.41" stroke-width="2"/><line x1="495" y1="425" x2="610" y2="600" stroke="{{KEY}}" stroke-opacity="0.41" stroke-width="2"/><line x1="725" y1="425" x2="610" y2="600" stroke="{{KEY}}" stroke-opacity="0.41" stroke-width="2"/><line x1="725" y1="425" x2="840" y2="600" stroke="{{KEY}}" stroke-opacity="0.41" stroke-width="2"/><line x1="380" y1="600" x2="610" y2="600" stroke="{{KEY}}" stroke-opacity="0.41" stroke-width="2"/><line x1="380" y1="600" x2="495" y2="775" stroke="{{KEY}}" stroke-opacity="0.41" stroke-width="2"/><line x1="610" y1="600" x2="840" y2="600" stroke="{{KEY}}" stroke-opacity="0.41" stroke-width="2"/><line x1="610" y1="600" x2="495" y2="775" stroke="{{KEY}}" stroke-opacity="0.41" stroke-width="2"/><line x1="610" y1="600" x2="725" y2="775" stroke="{{KEY}}" stroke-opacity="0.41" stroke-width="2"/><line x1="840" y1="600" x2="725" y2="775" stroke="{{KEY}}" stroke-opacity="0.41" stroke-width="2"/><line x1="495" y1="775" x2="725" y2="775" stroke="{{KEY}}" stroke-opacity="0.41" stroke-width="2"/><circle cx="610" cy="255" r="70" fill="{{KEY}}" fill-opacity="0.332"/><circle cx="610" cy="255" r="70" fill="none" stroke="{{KEY}}" stroke-opacity="0.656" stroke-width="2.5"/><circle cx="495" cy="425" r="70" fill="{{KEY}}" fill-opacity="0.332"/><circle cx="495" cy="425" r="70" fill="none" stroke="{{KEY}}" stroke-opacity="0.656" stroke-width="2.5"/><circle cx="725" cy="425" r="70" fill="{{KEY}}" fill-opacity="0.332"/><circle cx="725" cy="425" r="70" fill="none" stroke="{{KEY}}" stroke-opacity="0.656" stroke-width="2.5"/><circle cx="380" cy="600" r="70" fill="{{KEY}}" fill-opacity="0.332"/><circle cx="380" cy="600" r="70" fill="none" stroke="{{KEY}}" stroke-opacity="0.656" stroke-width="2.5"/><circle cx="610" cy="600" r="70" fill="{{KEY}}" fill-opacity="0.332"/><circle cx="610" cy="600" r="70" fill="none" stroke="{{KEY}}" stroke-opacity="0.656" stroke-width="2.5"/><circle cx="840" cy="600" r="70" fill="{{KEY}}" fill-opacity="0.332"/><circle cx="840" cy="600" r="70" fill="none" stroke="{{KEY}}" stroke-opacity="0.656" stroke-width="2.5"/><circle cx="495" cy="775" r="70" fill="{{KEY}}" fill-opacity="0.332"/><circle cx="495" cy="775" r="70" fill="none" stroke="{{KEY}}" stroke-opacity="0.656" stroke-width="2.5"/><circle cx="725" cy="775" r="70" fill="{{KEY}}" fill-opacity="0.332"/><circle cx="725" cy="775" r="70" fill="none" stroke="{{KEY}}" stroke-opacity="0.656" stroke-width="2.5"/><rect width="1080" height="1350" fill="url(#vig)"/></svg>