<svg xmlns="http://www.w3.org/2000/svg" width="1080" height="1350" viewBox="0 0 1080 1350" preserveAspectRatio="xMidYMid slice"><defs><radialGradient id="vig" cx="50%" cy="34%" r="78%"><stop offset="0%" stop-color="#FFFFFF" stop-opacity="0.055"/><stop offset="70%" stop-color="#FFFFFF" stop-opacity="0.012"/><stop offset="100%" stop-color="#FFFFFF" stop-opacity="0"/></radialGradient></defs><rect width="1080" height="1350" fill="{{BG}}"/><circle cx="50" cy="185" r="26" fill="{{KEY}}" fill-opacity="0.332"/><circle cx="50" cy="185" r="26" fill="none" stroke="{{KEY}}" stroke-opacity="0.451" stroke-width="1.5"/><circle cx="146" cy="185" r="26" fill="{{KEY}}" fill-opacity="0.332"/><circle cx="146" cy="185" r="26" fill="none" stroke="{{KEY}}" stroke-opacity="0.451" stroke-width="1.5"/><circle cx="242" cy="185" r="26" fill="{{KEY}}" fill-opacity="0.332"/><circle cx="242" cy="185" r="26" fill="none" stroke="{{KEY}}" stroke-opacity="0.451" stroke-width="1.5"/><circle cx="338" cy="185" r="26" fill="{{KEY}}" fill-opacity="0.332"/><circle cx="338" cy="185" r="26" fill="none" stroke="{{KEY}}" stroke-opacity="0.451" stroke-width="1.5"/><circle cx="434" cy="185" r="26" fill="{{KEY}}" fill-opacity="0.332"/><circle cx="434" cy="185" r="26" fill="none" stroke="{{KEY}}" stroke-opacity="0.451" stroke-width="1.5"/><circle cx="530" cy="185" r="26" fill="{{KEY}}" fill-opacity="0.332"/><circle cx="530" cy="185" r="26" fill="none" stroke="{{KEY}}" stroke-opacity="0.451" stroke-width="1.5"/><circle cx="626" cy="185" r="26" fill="{{KEY}}" fill-opacity="0.332"/><circle cx="626" cy="185" r="26" fill="none" stroke="{{KEY}}" stroke-opacity="0.451" stroke-width="1.5"/><circle cx="722" cy="185" r="26" fill="{{KEY}}" fill-opacity="0.332"/><circle cx="722" cy="185" r="26" fill="none" stroke="{{KEY}}" stroke-opacity="0.451" stroke-width="1.5"/><circle cx="818" cy="185" r="26" fill="{{KEY}}" fill-opacity="0.332"/><circle cx="818" cy="185" r="26" fill="none" stroke="{{KEY}}" stroke-opacity="0.451" stroke-width="1.5"/><circle cx="914" cy="185" r="26" fill="{{KEY}}" fill-opacity="0.332"/><circle cx="914" cy="185" r="26" fill="none" stroke="{{KEY}}" stroke-opacity="0.451" stroke-width="1.5"/><circle cx="1010" cy="185" r="26" fill="{{KEY}}" fill-opacity="0.332"/><circle cx="1010" cy="185" r="26" fill="none" stroke="{{KEY}}" stroke-opacity="0.451" stroke-width="1.5"/><circle cx="98" cy="281" r="26" fill="{{KEY}}" fill-opacity="0.332"/><circle cx="98" cy="281" r="26" fill="none" stroke="{{KEY}}" stroke-opacity="0.451" stroke-width="1.5"/><circle cx="194" cy="281" r="26" fill="{{KEY}}" fill-opacity="0.332"/><circle cx="194" cy="281" r="26" fill="none" stroke="{{KEY}}" stroke-opacity="0.451" stroke-width="1.5"/><circle cx="290" cy="281" r="26" fill="{{KEY}}" fill-opacity="0.332"/><circle cx="290" cy="281" r="26" fill="none" stroke="{{KEY}}" stroke-opacity="0.451" stroke-width="1.5"/><circle cx="386" cy="281" r="26" fill="{{KEY}}" fill-opacity="0.332"/><circle cx="386" cy="281" r="26" fill="none" stroke="{{KEY}}" stroke-opacity="0.451" stroke-width="1.5"/><circle cx="482" cy="281" r="26" fill="{{KEY}}" fill-opacity="0.332"/><circle cx="482" cy="281" r="26" fill="none" stroke="{{KEY}}" stroke-opacity="0.451" stroke-width="1.5"/><circle cx="578" cy="281" r="26" fill="{{KEY}}" fill-opacity="0.332"/><circle cx="578" cy="281" r="26" fill="none" stroke="{{KEY}}" stroke-opacity="0.451" stroke-width="1.5"/><circle cx="674" cy="281" r="26" fill="{{KEY}}" fill-opacity="0.332"/><circle cx="674" cy="281" r="26" fill="none" stroke="{{KEY}}" stroke-opacity="0.451" stroke-width="1.5"/><circle cx="770" cy="281" r="26" fill="{{KEY}}" fill-opacity="0.332"/><circle cx="770" cy="281" r="26" fill="none" stroke="{{KEY}}" stroke-opacity="0.451" stroke-width="1.5"/><circle cx="866" cy="281" r="26" fill="{{KEY}}" fill-opacity="0.332"/><circle cx="866" cy="281" r="26" fill="none" stroke="{{KEY}}" stroke-opacity="0.451" stroke-width="1.5"/><circle cx="962" cy="281" r="26" fill="{{KEY}}" fill-opacity="0.332"/><circle cx="962" cy="281" r="26" fill="none" stroke="{{KEY}}" stroke-opacity="0.451" stroke-width="1.5"/><circle cx="1058" cy="281" r="26" fill="{{KEY}}" fill-opacity="0.332"/><circle cx="1058" cy="281" r="26" fill="none" stroke="{{KEY}}" stroke-opacity="0.451" stroke-width="1.5"/><circle cx="50" cy="377" r="26" fill="{{KEY}}" fill-opacity="0.332"/><circle cx="50" cy="377" r="26" fill="none" stroke="{{KEY}}" stroke-opacity="0.451" stroke-width="1.5"/><circle cx="146" cy="377" r="26" fill="{{KEY}}" fill-opacity="0.332"/><circle cx="146" cy="377" r="26" fill="none" stroke="{{KEY}}" stroke-opacity="0.451" stroke-width="1.5"/><circle cx="242" cy="377" r="26" fill="{{KEY}}" fill-opacity="0.332"/><circle cx="242" cy="377" r="26" fill="none" stroke="{{KEY}}" stroke-opacity="0.451" stroke-width="1.5"/><circle cx="338" cy="377" r="26" fill="{{KEY}}" fill-opacity="0.332"/><circle cx="338" cy="377" r="26" fill="none" stroke="{{KEY}}" stroke-opacity="0.451" stroke-width="1.5"/><circle cx="434" cy="377" r="26" fill="{{KEY}}" fill-opacity="0.332"/><circle cx="434" cy="377" r="26" fill="none" stroke="{{KEY}}" stroke-opacity="0.451" stroke-width="1.5"/><circle cx="530" cy="377" r="26" fill="{{KEY}}" fill-opacity="0.332"/><circle cx="530" cy="377" r="26" fill="none" stroke="{{KEY}}" stroke-opacity="0.451" stroke-width="1.5"/><circle cx="626" cy="377" r="26" fill="{{KEY}}" fill-opacity="0.332"/><circle cx="626" cy="377" r="26" fill="none" stroke="{{KEY}}" stroke-opacity="0.451" stroke-width="1.5"/><circle cx="722" cy="377" r="26" fill="{{KEY}}" fill-opacity="0.332"/><circle cx="722" cy="377" r="26" fill="none" stroke="{{KEY}}" stroke-opacity="0.451" stroke-width="1.5"/><circle cx="818" cy="377" r="26" fill="{{KEY}}" fill-opacity="0.332"/><circle cx="818" cy="377" r="26" fill="none" stroke="{{KEY}}" stroke-opacity="0.451" stroke-width="1.5"/><circle cx="914" cy="377" r="26" fill="{{KEY}}" fill-opacity="0.332"/><circle cx="914" cy="377" r="26" fill="none" stroke="{{KEY}}" stroke-opacity="0.451" stroke-width="1.5"/><circle cx="1010" cy="377" r="26" fill="{{KEY}}" fill-opacity="0.332"/><circle cx="1010" cy="377" r="26" fill="none" stroke="{{KEY}}" stroke-opacity="0.451" stroke-width="1.5"/><circle cx="98" cy="473" r="26" fill="{{KEY}}" fill-opacity="0.332"/><circle cx="98" cy="473" r="26" fill="none" stroke="{{KEY}}" stroke-opacity="0.451" stroke-width="1.5"/><circle cx="194" cy="473" r="26" fill="{{KEY}}" fill-opacity="0.332"/><circle cx="194" cy="473" r="26" fill="none" stroke="{{KEY}}" stroke-opacity="0.451" stroke-width="1.5"/><circle cx="290" cy="473" r="26" fill="{{KEY}}" fill-opacity="0.332"/><circle cx="290" cy="473" r="26" fill="none" stroke="{{KEY}}" stroke-opacity="0.451" stroke-width="1.5"/><circle cx="386" cy="473" r="26" fill="{{KEY}}" fill-opacity="0.332"/><circle cx="386" cy="473" r="26" fill="none" stroke="{{KEY}}" stroke-opacity="0.451" stroke-width="1.5"/><circle cx="482" cy="473" r="26" fill="{{KEY}}" fill-opacity="0.332"/><circle cx="482" cy="473" r="26" fill="none" stroke="{{KEY}}" stroke-opacity="0.451" stroke-width="1.5"/><circle cx="578" cy="473" r="26" fill="{{KEY}}" fill-opacity="0.332"/><circle cx="578" cy="473" r="26" fill="none" stroke="{{KEY}}" stroke-opacity="0.451" stroke-width="1.5"/><circle cx="674" cy="473" r="26" fill="{{KEY}}" fill-opacity="0.332"/><circle cx="674" cy="473" r="26" fill="none" stroke="{{KEY}}" stroke-opacity="0.451" stroke-width="1.5"/><circle cx="770" cy="473" r="26" fill="{{KEY}}" fill-opacity="0.332"/><circle cx="770" cy="473" r="26" fill="none" stroke="{{KEY}}" stroke-opacity="0.451" stroke-width="1.5"/><circle cx="866" cy="473" r="26" fill="{{KEY}}" fill-opacity="0.332"/><circle cx="866" cy="473" r="26" fill="none" stroke="{{KEY}}" stroke-opacity="0.451" stroke-width="1.5"/><circle cx="962" cy="473" r="26" fill="{{KEY}}" fill-opacity="0.332"/><circle cx="962" cy="473" r="26" fill="none" stroke="{{KEY}}" stroke-opacity="0.451" stroke-width="1.5"/><circle cx="1058" cy="473" r="26" fill="{{KEY}}" fill-opacity="0.332"/><circle cx="1058" cy="473" r="26" fill="none" stroke="{{KEY}}" stroke-opacity="0.451" stroke-width="1.5"/><circle cx="50" cy="569" r="26" fill="{{KEY}}" fill-opacity="0.332"/><circle cx="50" cy="569" r="26" fill="none" stroke="{{KEY}}" stroke-opacity="0.451" stroke-width="1.5"/><circle cx="146" cy="569" r="26" fill="{{KEY}}" fill-opacity="0.332"/><circle cx="146" cy="569" r="26" fill="none" stroke="{{KEY}}" stroke-opacity="0.451" stroke-width="1.5"/><circle cx="242" cy="569" r="26" fill="{{KEY}}" fill-opacity="0.332"/><circle cx="242" cy="569" r="26" fill="none" stroke="{{KEY}}" stroke-opacity="0.451" stroke-width="1.5"/><circle cx="338" cy="569" r="26" fill="{{KEY}}" fill-opacity="0.332"/><circle cx="338" cy="569" r="26" fill="none" stroke="{{KEY}}" stroke-opacity="0.451" stroke-width="1.5"/><circle cx="434" cy="569" r="26" fill="{{KEY}}" fill-opacity="0.332"/><circle cx="434" cy="569" r="26" fill="none" stroke="{{KEY}}" stroke-opacity="0.451" stroke-width="1.5"/><circle cx="530" cy="569" r="26" fill="{{KEY}}" fill-opacity="0.332"/><circle cx="530" cy="569" r="26" fill="none" stroke="{{KEY}}" stroke-opacity="0.451" stroke-width="1.5"/><circle cx="626" cy="569" r="26" fill="{{KEY}}" fill-opacity="0.332"/><circle cx="626" cy="569" r="26" fill="none" stroke="{{KEY}}" stroke-opacity="0.451" stroke-width="1.5"/><circle cx="722" cy="569" r="26" fill="{{KEY}}" fill-opacity="0.332"/><circle cx="722" cy="569" r="26" fill="none" stroke="{{KEY}}" stroke-opacity="0.451" stroke-width="1.5"/><circle cx="818" cy="569" r="26" fill="{{KEY}}" fill-opacity="0.332"/><circle cx="818" cy="569" r="26" fill="none" stroke="{{KEY}}" stroke-opacity="0.451" stroke-width="1.5"/><circle cx="914" cy="569" r="26" fill="{{KEY}}" fill-opacity="0.332"/><circle cx="914" cy="569" r="26" fill="none" stroke="{{KEY}}" stroke-opacity="0.451" stroke-width="1.5"/><circle cx="1010" cy="569" r="26" fill="{{KEY}}" fill-opacity="0.332"/><circle cx="1010" cy="569" r="26" fill="none" stroke="{{KEY}}" stroke-opacity="0.451" stroke-width="1.5"/><circle cx="98" cy="665" r="26" fill="{{KEY}}" fill-opacity="0.332"/><circle cx="98" cy="665" r="26" fill="none" stroke="{{KEY}}" stroke-opacity="0.451" stroke-width="1.5"/><circle cx="194" cy="665" r="26" fill="{{KEY}}" fill-opacity="0.332"/><circle cx="194" cy="665" r="26" fill="none" stroke="{{KEY}}" stroke-opacity="0.451" stroke-width="1.5"/><circle cx="290" cy="665" r="26" fill="{{KEY}}" fill-opacity="0.332"/><circle cx="290" cy="665" r="26" fill="none" stroke="{{KEY}}" stroke-opacity="0.451" stroke-width="1.5"/><circle cx="386" cy="665" r="26" fill="{{KEY}}" fill-opacity="0.332"/><circle cx="386" cy="665" r="26" fill="none" stroke="{{KEY}}" stroke-opacity="0.451" stroke-width="1.5"/><circle cx="482" cy="665" r="26" fill="{{KEY}}" fill-opacity="0.332"/><circle cx="482" cy="665" r="26" fill="none" stroke="{{KEY}}" stroke-opacity="0.451" stroke-width="1.5"/><circle cx="578" cy="665" r="26" fill="{{KEY}}" fill-opacity="0.332"/><circle cx="578" cy="665" r="26" fill="none" stroke="{{KEY}}" stroke-opacity="0.451" stroke-width="1.5"/><circle cx="674" cy="665" r="26" fill="{{KEY}}" fill-opacity="0.332"/><circle cx="674" cy="665" r="26" fill="none" stroke="{{KEY}}" stroke-opacity="0.451" stroke-width="1.5"/><circle cx="770" cy="665" r="26" fill="{{KEY}}" fill-opacity="0.332"/><circle cx="770" cy="665" r="26" fill="none" stroke="{{KEY}}" stroke-opacity="0.451" stroke-width="1.5"/><circle cx="866" cy="665" r="26" fill="{{KEY}}" fill-opacity="0.332"/><circle cx="866" cy="665" r="26" fill="none" stroke="{{KEY}}" stroke-opacity="0.451" stroke-width="1.5"/><circle cx="962" cy="665" r="26" fill="{{KEY}}" fill-opacity="0.332"/><circle cx="962" cy="665" r="26" fill="none" stroke="{{KEY}}" stroke-opacity="0.451" stroke-width="1.5"/><circle cx="1058" cy="665" r="26" fill="{{KEY}}" fill-opacity="0.332"/><circle cx="1058" cy="665" r="26" fill="none" stroke="{{KEY}}" stroke-opacity="0.451" stroke-width="1.5"/><circle cx="50" cy="761" r="26" fill="{{KEY}}" fill-opacity="0.332"/><circle cx="50" cy="761" r="26" fill="none" stroke="{{KEY}}" stroke-opacity="0.451" stroke-width="1.5"/><circle cx="146" cy="761" r="26" fill="{{KEY}}" fill-opacity="0.332"/><circle cx="146" cy="761" r="26" fill="none" stroke="{{KEY}}" stroke-opacity="0.451" stroke-width="1.5"/><circle cx="242" cy="761" r="26" fill="{{KEY}}" fill-opacity="0.332"/><circle cx="242" cy="761" r="26" fill="none" stroke="{{KEY}}" stroke-opacity="0.451" stroke-width="1.5"/><circle cx="338" cy="761" r="26" fill="{{KEY}}" fill-opacity="0.332"/><circle cx="338" cy="761" r="26" fill="none" stroke="{{KEY}}" stroke-opacity="0.451" stroke-width="1.5"/><circle cx="434" cy="761" r="26" fill="{{KEY}}" fill-opacity="0.332"/><circle cx="434" cy="761" r="26" fill="none" stroke="{{KEY}}" stroke-opacity="0.451" stroke-width="1.5"/><circle cx="530" cy="761" r="26" fill="{{KEY}}" fill-opacity="0.332"/><circle cx="530" cy="761" r="26" fill="none" stroke="{{KEY}}" stroke-opacity="0.451" stroke-width="1.5"/><circle cx="626" cy="761" r="26" fill="{{KEY}}" fill-opacity="0.332"/><circle cx="626" cy="761" r="26" fill="none" stroke="{{KEY}}" stroke-opacity="0.451" stroke-width="1.5"/><circle cx="722" cy="761" r="26" fill="{{KEY}}" fill-opacity="0.332"/><circle cx="722" cy="761" r="26" fill="none" stroke="{{KEY}}" stroke-opacity="0.451" stroke-width="1.5"/><circle cx="818" cy="761" r="26" fill="{{KEY}}" fill-opacity="0.332"/><circle cx="818" cy="761" r="26" fill="none" stroke="{{KEY}}" stroke-opacity="0.451" stroke-width="1.5"/><circle cx="914" cy="761" r="26" fill="{{KEY}}" fill-opacity="0.332"/><circle cx="914" cy="761" r="26" fill="none" stroke="{{KEY}}" stroke-opacity="0.451" stroke-width="1.5"/><circle cx="1010" cy="761" r="26" fill="{{KEY}}" fill-opacity="0.332"/><circle cx="1010" cy="761" r="26" fill="none" stroke="{{KEY}}" stroke-opacity="0.451" stroke-width="1.5"/><circle cx="98" cy="857" r="26" fill="{{KEY}}" fill-opacity="0.332"/><circle cx="98" cy="857" r="26" fill="none" stroke="{{KEY}}" stroke-opacity="0.451" stroke-width="1.5"/><circle cx="194" cy="857" r="26" fill="{{KEY}}" fill-opacity="0.332"/><circle cx="194" cy="857" r="26" fill="none" stroke="{{KEY}}" stroke-opacity="0.451" stroke-width="1.5"/><circle cx="290" cy="857" r="26" fill="{{KEY}}" fill-opacity="0.332"/><circle cx="290" cy="857" r="26" fill="none" stroke="{{KEY}}" stroke-opacity="0.451" stroke-width="1.5"/><circle cx="386" cy="857" r="26" fill="{{KEY}}" fill-opacity="0.332"/><circle cx="386" cy="857" r="26" fill="none" stroke="{{KEY}}" stroke-opacity="0.451" stroke-width="1.5"/><circle cx="482" cy="857" r="26" fill="{{KEY}}" fill-opacity="0.332"/><circle cx="482" cy="857" r="26" fill="none" stroke="{{KEY}}" stroke-opacity="0.451" stroke-width="1.5"/><circle cx="578" cy="857" r="26" fill="{{KEY}}" fill-opacity="0.332"/><circle cx="578" cy="857" r="26" fill="none" stroke="{{KEY}}" stroke-opacity="0.451" stroke-width="1.5"/><circle cx="674" cy="857" r="26" fill="{{KEY}}" fill-opacity="0.332"/><circle cx="674" cy="857" r="26" fill="none" stroke="{{KEY}}" stroke-opacity="0.451" stroke-width="1.5"/><circle cx="770" cy="857" r="26" fill="{{KEY}}" fill-opacity="0.332"/><circle cx="770" cy="857" r="26" fill="none" stroke="{{KEY}}" stroke-opacity="0.451" stroke-width="1.5"/><circle cx="866" cy="857" r="26" fill="{{KEY}}" fill-opacity="0.332"/><circle cx="866" cy="857" r="26" fill="none" stroke="{{KEY}}" stroke-opacity="0.451" stroke-width="1.5"/><circle cx="962" cy="857" r="26" fill="{{KEY}}" fill-opacity="0.332"/><circle cx="962" cy="857" r="26" fill="none" stroke="{{KEY}}" stroke-opacity="0.451" stroke-width="1.5"/><circle cx="1058" cy="857" r="26" fill="{{KEY}}" fill-opacity="0.332"/><circle cx="1058" cy="857" r="26" fill="none" stroke="{{KEY}}" stroke-opacity="0.451" stroke-width="1.5"/><circle cx="50" cy="953" r="26" fill="{{KEY}}" fill-opacity="0.332"/><circle cx="50" cy="953" r="26" fill="none" stroke="{{KEY}}" stroke-opacity="0.451" stroke-width="1.5"/><circle cx="146" cy="953" r="26" fill="{{KEY}}" fill-opacity="0.332"/><circle cx="146" cy="953" r="26" fill="none" stroke="{{KEY}}" stroke-opacity="0.451" stroke-width="1.5"/><circle cx="242" cy="953" r="26" fill="{{KEY}}" fill-opacity="0.332"/><circle cx="242" cy="953" r="26" fill="none" stroke="{{KEY}}" stroke-opacity="0.451" stroke-width="1.5"/><circle cx="338" cy="953" r="26" fill="{{KEY}}" fill-opacity="0.332"/><circle cx="338" cy="953" r="26" fill="none" stroke="{{KEY}}" stroke-opacity="0.451" stroke-width="1.5"/><circle cx="434" cy="953" r="26" fill="{{KEY}}" fill-opacity="0.332"/><circle cx="434" cy="953" r="26" fill="none" stroke="{{KEY}}" stroke-opacity="0.451" stroke-width="1.5"/><circle cx="530" cy="953" r="26" fill="{{KEY}}" fill-opacity="0.332"/><circle cx="530" cy="953" r="26" fill="none" stroke="{{KEY}}" stroke-opacity="0.451" stroke-width="1.5"/><circle cx="626" cy="953" r="26" fill="{{KEY}}" fill-opacity="0.332"/><circle cx="626" cy="953" r="26" fill="none" stroke="{{KEY}}" stroke-opacity="0.451" stroke-width="1.5"/><circle cx="722" cy="953" r="26" fill="{{KEY}}" fill-opacity="0.332"/><circle cx="722" cy="953" r="26" fill="none" stroke="{{KEY}}" stroke-opacity="0.451" stroke-width="1.5"/><circle cx="818" cy="953" r="26" fill="{{KEY}}" fill-opacity="0.332"/><circle cx="818" cy="953" r="26" fill="none" stroke="{{KEY}}" stroke-opacity="0.451" stroke-width="1.5"/><circle cx="914" cy="953" r="26" fill="{{KEY}}" fill-opacity="0.332"/><circle cx="914" cy="953" r="26" fill="none" stroke="{{KEY}}" stroke-opacity="0.451" stroke-width="1.5"/><circle cx="1010" cy="953" r="26" fill="{{KEY}}" fill-opacity="0.332"/><circle cx="1010" cy="953" r="26" fill="none" stroke="{{KEY}}" stroke-opacity="0.451" stroke-width="1.5"/><circle cx="98" cy="1049" r="26" fill="{{KEY}}" fill-opacity="0.332"/><circle cx="98" cy="1049" r="26" fill="none" stroke="{{KEY}}" stroke-opacity="0.451" stroke-width="1.5"/><circle cx="194" cy="1049" r="26" fill="{{KEY}}" fill-opacity="0.332"/><circle cx="194" cy="1049" r="26" fill="none" stroke="{{KEY}}" stroke-opacity="0.451" stroke-width="1.5"/><circle cx="290" cy="1049" r="26" fill="{{KEY}}" fill-opacity="0.332"/><circle cx="290" cy="1049" r="26" fill="none" stroke="{{KEY}}" stroke-opacity="0.451" stroke-width="1.5"/><circle cx="386" cy="1049" r="26" fill="{{KEY}}" fill-opacity="0.332"/><circle cx="386" cy="1049" r="26" fill="none" stroke="{{KEY}}" stroke-opacity="0.451" stroke-width="1.5"/><circle cx="482" cy="1049" r="26" fill="{{KEY}}" fill-opacity="0.332"/><circle cx="482" cy="1049" r="26" fill="none" stroke="{{KEY}}" stroke-opacity="0.451" stroke-width="1.5"/><circle cx="578" cy="1049" r="26" fill="{{KEY}}" fill-opacity="0.332"/><circle cx="578" cy="1049" r="26" fill="none" stroke="{{KEY}}" stroke-opacity="0.451" stroke-width="1.5"/><circle cx="674" cy="1049" r="26" fill="{{KEY}}" fill-opacity="0.332"/><circle cx="674" cy="1049" r="26" fill="none" stroke="{{KEY}}" stroke-opacity="0.451" stroke-width="1.5"/><circle cx="770" cy="1049" r="26" fill="{{KEY}}" fill-opacity="0.332"/><circle cx="770" cy="1049" r="26" fill="none" stroke="{{KEY}}" stroke-opacity="0.451" stroke-width="1.5"/><circle cx="866" cy="1049" r="26" fill="{{KEY}}" fill-opacity="0.332"/><circle cx="866" cy="1049" r="26" fill="none" stroke="{{KEY}}" stroke-opacity="0.451" stroke-width="1.5"/><circle cx="962" cy="1049" r="26" fill="{{KEY}}" fill-opacity="0.332"/><circle cx="962" cy="1049" r="26" fill="none" stroke="{{KEY}}" stroke-opacity="0.451" stroke-width="1.5"/><circle cx="1058" cy="1049" r="26" fill="{{KEY}}" fill-opacity="0.332"/><circle cx="1058" cy="1049" r="26" fill="none" stroke="{{KEY}}" stroke-opacity="0.451" stroke-width="1.5"/><circle cx="50" cy="1145" r="26" fill="{{KEY}}" fill-opacity="0.332"/><circle cx="50" cy="1145" r="26" fill="none" stroke="{{KEY}}" stroke-opacity="0.451" stroke-width="1.5"/><circle cx="146" cy="1145" r="26" fill="{{KEY}}" fill-opacity="0.332"/><circle cx="146" cy="1145" r="26" fill="none" stroke="{{KEY}}" stroke-opacity="0.451" stroke-width="1.5"/><circle cx="242" cy="1145" r="26" fill="{{KEY}}" fill-opacity="0.332"/><circle cx="242" cy="1145" r="26" fill="none" stroke="{{KEY}}" stroke-opacity="0.451" stroke-width="1.5"/><circle cx="338" cy="1145" r="26" fill="{{KEY}}" fill-opacity="0.332"/><circle cx="338" cy="1145" r="26" fill="none" stroke="{{KEY}}" stroke-opacity="0.451" stroke-width="1.5"/><circle cx="434" cy="1145" r="26" fill="{{KEY}}" fill-opacity="0.332"/><circle cx="434" cy="1145" r="26" fill="none" stroke="{{KEY}}" stroke-opacity="0.451" stroke-width="1.5"/><circle cx="530" cy="1145" r="26" fill="{{KEY}}" fill-opacity="0.332"/><circle cx="530" cy="1145" r="26" fill="none" stroke="{{KEY}}" stroke-opacity="0.451" stroke-width="1.5"/><circle cx="626" cy="1145" r="26" fill="{{KEY}}" fill-opacity="0.332"/><circle cx="626" cy="1145" r="26" fill="none" stroke="{{KEY}}" stroke-opacity="0.451" stroke-width="1.5"/><circle cx="722" cy="1145" r="26" fill="{{KEY}}" fill-opacity="0.332"/><circle cx="722" cy="1145" r="26" fill="none" stroke="{{KEY}}" stroke-opacity="0.451" stroke-width="1.5"/><circle cx="818" cy="1145" r="26" fill="{{KEY}}" fill-opacity="0.332"/><circle cx="818" cy="1145" r="26" fill="none" stroke="{{KEY}}" stroke-opacity="0.451" stroke-width="1.5"/><circle cx="914" cy="1145" r="26" fill="{{KEY}}" fill-opacity="0.332"/><circle cx="914" cy="1145" r="26" fill="none" stroke="{{KEY}}" stroke-opacity="0.451" stroke-width="1.5"/><circle cx="1010" cy="1145" r="26" fill="{{KEY}}" fill-opacity="0.332"/><circle cx="1010" cy="1145" r="26" fill="none" stroke="{{KEY}}" stroke-opacity="0.451" stroke-width="1.5"/><rect width="1080" height="1350" fill="url(#vig)"/></svg>