<svg xmlns="http://www.w3.org/2000/svg" width="1080" height="1350" viewBox="0 0 1080 1350" preserveAspectRatio="xMidYMid slice"><defs><radialGradient id="vig" cx="50%" cy="34%" r="78%"><stop offset="0%" stop-color="#FFFFFF" stop-opacity="0.055"/><stop offset="70%" stop-color="#FFFFFF" stop-opacity="0.012"/><stop offset="100%" stop-color="#FFFFFF" stop-opacity="0"/></radialGradient></defs><rect width="1080" height="1350" fill="{{BG}}"/><circle cx="540" cy="635" r="120" fill="none" stroke="{{KEY}}" stroke-opacity="0.615" stroke-width="2"/><circle cx="540" cy="635" r="198" fill="none" stroke="{{KEY}}" stroke-opacity="0.558" stroke-width="2"/><circle cx="540" cy="635" r="276" fill="none" stroke="{{KEY}}" stroke-opacity="0.500" stroke-width="2"/><circle cx="540" cy="635" r="354" fill="none" stroke="{{KEY}}" stroke-opacity="0.443" stroke-width="2"/><circle cx="540" cy="635" r="432" fill="none" stroke="{{KEY}}" stroke-opacity="0.385" stroke-width="2"/><circle cx="540" cy="635" r="510" fill="none" stroke="{{KEY}}" stroke-opacity="0.328" stroke-width="2"/><circle cx="540" cy="635" r="588" fill="none" stroke="{{KEY}}" stroke-opacity="0.271" stroke-width="2"/><line x1="658.0" y1="635.0" x2="1140.0" y2="635.0" stroke="{{KEY}}" stroke-opacity="0.27" stroke-width="1.5"/><line x1="654.0" y1="665.5" x2="1119.6" y2="790.3" stroke="{{KEY}}" stroke-opacity="0.27" stroke-width="1.5"/><line x1="642.2" y1="694.0" x2="1059.6" y2="935.0" stroke="{{KEY}}" stroke-opacity="0.27" stroke-width="1.5"/><line x1="623.4" y1="718.4" x2="964.3" y2="1059.3" stroke="{{KEY}}" stroke-opacity="0.27" stroke-width="1.5"/><line x1="599.0" y1="737.2" x2="840.0" y2="1154.6" stroke="{{KEY}}" stroke-opacity="0.27" stroke-width="1.5"/><line x1="570.5" y1="749.0" x2="695.3" y2="1214.6" stroke="{{KEY}}" stroke-opacity="0.27" stroke-width="1.5"/><line x1="540.0" y1="753.0" x2="540.0" y2="1235.0" stroke="{{KEY}}" stroke-opacity="0.27" stroke-width="1.5"/><line x1="509.5" y1="749.0" x2="384.7" y2="1214.6" stroke="{{KEY}}" stroke-opacity="0.27" stroke-width="1.5"/><line x1="481.0" y1="737.2" x2="240.0" y2="1154.6" stroke="{{KEY}}" stroke-opacity="0.27" stroke-width="1.5"/><line x1="456.6" y1="718.4" x2="115.7" y2="1059.3" stroke="{{KEY}}" stroke-opacity="0.27" stroke-width="1.5"/><line x1="437.8" y1="694.0" x2="20.4" y2="935.0" stroke="{{KEY}}" stroke-opacity="0.27" stroke-width="1.5"/><line x1="426.0" y1="665.5" x2="-39.6" y2="790.3" stroke="{{KEY}}" stroke-opacity="0.27" stroke-width="1.5"/><line x1="422.0" y1="635.0" x2="-60.0" y2="635.0" stroke="{{KEY}}" stroke-opacity="0.27" stroke-width="1.5"/><line x1="426.0" y1="604.5" x2="-39.6" y2="479.7" stroke="{{KEY}}" stroke-opacity="0.27" stroke-width="1.5"/><line x1="437.8" y1="576.0" x2="20.4" y2="335.0" stroke="{{KEY}}" stroke-opacity="0.27" stroke-width="1.5"/><line x1="456.6" y1="551.6" x2="115.7" y2="210.7" stroke="{{KEY}}" stroke-opacity="0.27" stroke-width="1.5"/><line x1="481.0" y1="532.8" x2="240.0" y2="115.4" stroke="{{KEY}}" stroke-opacity="0.27" stroke-width="1.5"/><line x1="509.5" y1="521.0" x2="384.7" y2="55.4" stroke="{{KEY}}" stroke-opacity="0.27" stroke-width="1.5"/><line x1="540.0" y1="517.0" x2="540.0" y2="35.0" stroke="{{KEY}}" stroke-opacity="0.27" stroke-width="1.5"/><line x1="570.5" y1="521.0" x2="695.3" y2="55.4" stroke="{{KEY}}" stroke-opacity="0.27" stroke-width="1.5"/><line x1="599.0" y1="532.8" x2="840.0" y2="115.4" stroke="{{KEY}}" stroke-opacity="0.27" stroke-width="1.5"/><line x1="623.4" y1="551.6" x2="964.3" y2="210.7" stroke="{{KEY}}" stroke-opacity="0.27" stroke-width="1.5"/><line x1="642.2" y1="576.0" x2="1059.6" y2="335.0" stroke="{{KEY}}" stroke-opacity="0.27" stroke-width="1.5"/><line x1="654.0" y1="604.5" x2="1119.6" y2="479.7" stroke="{{KEY}}" stroke-opacity="0.27" stroke-width="1.5"/><circle cx="540" cy="635" r="96" fill="{{KEY}}" fill-opacity="0.429"/><rect width="1080" height="1350" fill="url(#vig)"/></svg>